<svg xmlns="http://www.w3.org/2000/svg" preserveAspectRatio="none" viewBox="0 0 1 1" width="1080" height="1080">
<g transform="matrix(0.000925925925925926,-0,-0,0.000925925925925926,-0,-0)"><defs></defs><g transform="matrix(
1,0,0,1,0,0)" style="mix-blend-mode: normal; opacity: 1"><g transform="matrix(
3.248799606492114,3.2487997485016638,-3.2487997108828663,3.2487995688733595,541.6320547550591,551.2250700678089)" style="mix-blend-mode: normal; opacity: 1"><g transform="matrix(
0.1539029914757292,-0.15390299998512869,0.15390299820304107,0.15390299325781476,-168.19398447406672,-1.4763901272713724)"><path d="M184.26408744103264,840.3682300717915C184.26408744103264,840.3682300717915 834.0240248839531,190.60831156347263 834.0240248839531,190.60831156347263 C834.0240248839531,190.60831156347263 899.0000174871602,255.58430606014048 899.0000174871602,255.58430606014048 C899.0000174871602,255.58430606014048 249.24008004423973,905.3442245684594 249.24008004423973,905.3442245684594 C249.24008004423973,905.3442245684594 184.26408744103264,840.3682300717915 184.26408744103264,840.3682300717915 Z" fill="#929393"/></g></g><g transform="matrix(
3.2487996064922338,-3.2487997485017837,1.2605342878226433,1.2605342327229256,702.4281494183059,745.8086709850951)" style="mix-blend-mode: normal; opacity: 1"><g transform="matrix(
0.15390299147572173,0.39665721645649304,-0.15390299820303716,0.39665719911805514,6.676397058196102,-574.4535730198577)"><path d="M793.7389153039916,905.3442245684594C793.7389153039916,905.3442245684594 541.6320530058143,653.2373827575254 541.6320530058143,653.2373827575254 C541.6320530058143,653.2373827575254 606.608044951993,588.2613876038243 606.608044951993,588.2613876038243 C606.608044951993,588.2613876038243 858.7149072501702,840.3682294147584 858.7149072501702,840.3682294147584 C858.7149072501702,840.3682294147584 793.7389153039916,905.3442245684594 793.7389153039916,905.3442245684594 Z" fill="#737172"/></g></g><g transform="matrix(
3.2487996064922164,-3.2487997485017663,1.2995198843532558,1.2995198275493605,348.9782363020104,384.5616551677408)" style="mix-blend-mode: normal; opacity: 1"><g transform="matrix(
0.15390299147571887,0.38475749996280306,-0.1539029982030417,0.3847574831445183,5.4763971974398515,-282.2349682972199)"><path d="M444.16806904533235,547.9762754391754C444.16806904533235,547.9762754391754 184.26408744103261,288.07231466295445 184.26408744103261,288.07231466295445 C184.26408744103261,288.07231466295445 249.24007938153056,223.09631950357343 249.24007938153056,223.09631950357343 C249.24007938153056,223.09631950357343 509.14406098583027,483.0002802797943 509.14406098583027,483.0002802797943 C509.14406098583027,483.0002802797943 444.16806904533235,547.9762754391754 444.16806904533235,547.9762754391754 Z" fill="#C0C1C0"/></g></g><g transform="matrix(
3.248799606492242,3.248799748501792,-1.2995198843532452,1.2995198275494007,542.6066946683435,387.810455058248)" style="mix-blend-mode: normal; opacity: 1"><g transform="matrix(
0.15390299147572065,-0.3847574999627987,0.15390299820303746,0.3847574831445139,-143.1939852721597,59.55902067832935)"><path d="M379.1920702360224,483.00028065848585C379.1920702360224,483.00028065848585 639.0960423730205,223.09631041495695 639.0960423730205,223.09631041495695 C639.0960423730205,223.09631041495695 704.072034692211,288.07230519564644 704.072034692211,288.07230519564644 C704.072034692211,288.07230519564644 444.168062555213,547.9762754391753 444.168062555213,547.9762754391753 C444.168062555213,547.9762754391753 379.1920702360224,483.00028065848585 379.1920702360224,483.00028065848585 Z" fill="#C0C1C0"/></g></g><g transform="matrix(
2.3447154498903156,-2.344715552381089,0.909749623789627,0.909749584023208,587.3785952944456,790.2046276089544)" style="mix-blend-mode: normal; opacity: 1"><g transform="matrix(
0.2132454828016316,0.5496017901858634,-0.2132454921228881,0.5496017661620057,43.25174255134678,-757.1221864539565)"><path d="M653.2791707210243,905.3442245684605C653.2791707210243,905.3442245684605 471.3292425467421,723.3943111801777 471.3292425467421,723.3943111801777 C471.3292425467421,723.3943111801777 518.2235514119934,676.5000000000014 518.2235514119934,676.5000000000014 C518.2235514119934,676.5000000000014 700.1734795862757,858.4499133882842 700.1734795862757,858.4499133882842 C700.1734795862757,858.4499133882842 653.2791707210243,905.3442245684605 653.2791707210243,905.3442245684605 Z" fill="#737172"/></g></g></g></g></svg>